<svg data-v-423bf9ae="" xmlns="http://www.w3.org/2000/svg" viewBox="0 0 NaN NaN" class="iconLeft"><!----><!----><!----><g data-v-423bf9ae="" id="01ee7e89-9def-424e-adbd-76a8c5e2e4cf" fill="white" transform="matrix(4.709576222757963,0,0,4.709576222757963,-143.39366679460548,-49.9679909422497)"><path d="M10.92 19.07L10.92 19.07L11.05 19.47L11.05 19.47Q9.82 19.84 8.46 19.84L8.46 19.84L8.46 19.84Q7.99 19.84 7.53 19.69L7.53 19.69L7.53 19.69Q7.08 19.53 6.73 19.31L6.73 19.31L6.73 19.31Q6.38 19.09 5.98 18.73L5.98 18.73L5.98 18.73Q5.59 18.36 5.34 18.08L5.34 18.08L5.34 18.08Q5.09 17.79 4.74 17.37L4.74 17.37L4.74 17.37Q3.88 17.34 3.18 17.05L3.18 17.05L3.18 17.05Q2.48 16.75 2.02 16.30L2.02 16.30L2.02 16.30Q1.55 15.84 1.24 15.23L1.24 15.23L1.24 15.23Q0.92 14.62 0.78 13.98L0.78 13.98L0.78 13.98Q0.64 13.33 0.64 12.64L0.64 12.64L0.64 12.64Q0.64 9.93 2.26 8.46L2.26 8.46L2.26 8.46Q3.03 7.77 4.12 7.43L4.12 7.43L4.12 7.43Q5.21 7.10 6.43 7.10L6.43 7.10L6.43 7.10Q7.38 7.10 8.24 7.37L8.24 7.37L8.24 7.37Q9.11 7.64 9.73 8.20L9.73 8.20L9.73 8.20Q11.13 9.47 11.13 11.84L11.13 11.84L11.13 11.84Q11.13 16.12 7.16 17.13L7.16 17.13L7.07 17.33L7.07 17.33Q7.31 17.71 7.52 17.98L7.52 17.98L7.52 17.98Q7.72 18.26 8.03 18.57L8.03 18.57L8.03 18.57Q8.34 18.89 8.70 19.06L8.70 19.06L8.70 19.06Q9.06 19.23 9.43 19.23L9.43 19.23L9.43 19.23Q9.99 19.23 10.92 19.07ZM5.93 16.73L5.93 16.73L5.93 16.73Q9.18 16.73 9.18 12.22L9.18 12.22L9.18 12.22Q9.18 11.51 9.06 10.87L9.06 10.87L9.06 10.87Q8.95 10.23 8.69 9.66L8.69 9.66L8.69 9.66Q8.44 9.08 8.06 8.65L8.06 8.65L8.06 8.65Q7.68 8.23 7.13 7.98L7.13 7.98L7.13 7.98Q6.58 7.74 5.91 7.74L5.91 7.74L5.91 7.74Q5.20 7.74 4.62 8.02L4.62 8.02L4.62 8.02Q4.05 8.30 3.68 8.74L3.68 8.74L3.68 8.74Q3.32 9.19 3.07 9.78L3.07 9.78L3.07 9.78Q2.83 10.38 2.73 10.97L2.73 10.97L2.73 10.97Q2.63 11.56 2.63 12.16L2.63 12.16L2.63 12.16Q2.63 12.64 2.71 13.14L2.71 13.14L2.71 13.14Q2.78 13.63 2.93 14.15L2.93 14.15L2.93 14.15Q3.08 14.68 3.35 15.13L3.35 15.13L3.35 15.13Q3.62 15.59 3.97 15.95L3.97 15.95L3.97 15.95Q4.32 16.31 4.83 16.52L4.83 16.52L4.83 16.52Q5.33 16.73 5.93 16.73ZM17.22 10.57L17.22 10.57L18.66 10.09L18.83 10.23L18.83 10.23Q18.76 11.81 18.76 14.05L18.76 14.05L18.76 14.05Q18.76 14.10 18.75 14.31L18.75 14.31L18.75 14.31Q18.74 14.53 18.73 14.69L18.73 14.69L18.73 14.69Q18.73 14.85 18.75 15.08L18.75 15.08L18.75 15.08Q18.78 15.31 18.84 15.46L18.84 15.46L18.84 15.46Q18.89 15.61 19.02 15.72L19.02 15.72L19.02 15.72Q19.15 15.83 19.33 15.83L19.33 15.83L19.33 15.83Q19.62 15.83 20.28 15.44L20.28 15.44L20.43 15.44L20.54 15.72L20.54 15.72Q20.20 16.05 20.02 16.22L20.02 16.22L20.02 16.22Q19.84 16.39 19.51 16.67L19.51 16.67L19.51 16.67Q19.17 16.94 18.89 17.07L18.89 17.07L18.89 17.07Q18.61 17.20 18.35 17.20L18.35 17.20L18.35 17.20Q17.49 17.20 17.34 16.24L17.34 16.24L17.21 16.15L17.21 16.15Q17.11 16.21 16.79 16.38L16.79 16.38L16.79 16.38Q16.47 16.54 16.32 16.62L16.32 16.62L16.32 16.62Q16.17 16.70 15.88 16.83L15.88 16.83L15.88 16.83Q15.59 16.97 15.40 17.03L15.40 17.03L15.40 17.03Q15.22 17.09 14.99 17.14L14.99 17.14L14.99 17.14Q14.76 17.20 14.57 17.20L14.57 17.20L14.57 17.20Q13.71 17.20 13.21 16.74L13.21 16.74L13.21 16.74Q13.14 16.67 13.08 16.59L13.08 16.59L13.08 16.59Q13.02 16.52 12.97 16.41L12.97 16.41L12.97 16.41Q12.93 16.30 12.90 16.21L12.90 16.21L12.90 16.21Q12.87 16.12 12.85 15.96L12.85 15.96L12.85 15.96Q12.84 15.80 12.83 15.70L12.83 15.70L12.83 15.70Q12.82 15.59 12.81 15.38L12.81 15.38L12.81 15.38Q12.81 15.16 12.81 15.04L12.81 15.04L12.81 15.04Q12.81 14.92 12.81 14.65L12.81 14.65L12.81 14.65Q12.81 14.38 12.81 14.23L12.81 14.23L12.81 14.23Q12.81 14.07 12.82 13.76L12.82 13.76L12.82 13.76Q12.82 13.46 12.82 13.32L12.82 13.32L12.82 13.32Q12.82 13.20 12.83 12.97L12.83 12.97L12.83 12.97Q12.83 12.74 12.83 12.62L12.83 12.62L12.83 12.62Q12.83 12.50 12.83 12.30L12.83 12.30L12.83 12.30Q12.82 12.11 12.81 12.00L12.81 12.00L12.81 12.00Q12.80 11.89 12.77 11.74L12.77 11.74L12.77 11.74Q12.75 11.59 12.70 11.52L12.70 11.52L12.70 11.52Q12.66 11.44 12.61 11.36L12.61 11.36L12.61 11.36Q12.55 11.28 12.47 11.25L12.47 11.25L12.47 11.25Q12.38 11.21 12.28 11.21L12.28 11.21L12.28 11.21Q12.02 11.21 11.42 11.59L11.42 11.59L11.22 11.24L11.22 11.24Q11.57 10.98 11.75 10.86L11.75 10.86L11.75 10.86Q11.93 10.73 12.26 10.53L12.26 10.53L12.26 10.53Q12.58 10.33 12.86 10.24L12.86 10.24L12.86 10.24Q13.14 10.14 13.38 10.14L13.38 10.14L13.38 10.14Q13.71 10.14 13.92 10.25L13.92 10.25L13.92 10.25Q14.14 10.36 14.25 10.55L14.25 10.55L14.25 10.55Q14.36 10.75 14.40 10.97L14.40 10.97L14.40 10.97Q14.44 11.19 14.44 11.48L14.44 11.48L14.44 11.48Q14.44 11.73 14.40 12.60L14.40 12.60L14.40 12.60Q14.35 13.46 14.35 13.92L14.35 13.92L14.35 13.92Q14.35 14.39 14.38 14.71L14.38 14.71L14.38 14.71Q14.40 15.03 14.49 15.32L14.49 15.32L14.49 15.32Q14.57 15.62 14.71 15.79L14.71 15.79L14.71 15.79Q14.86 15.96 15.10 16.06L15.10 16.06L15.10 16.06Q15.35 16.17 15.70 16.17L15.70 16.17L15.70 16.17Q16.13 16.17 16.50 16.00L16.50 16.00L16.50 16.00Q16.86 15.83 17.29 15.50L17.29 15.50L17.29 15.50Q17.30 14.95 17.30 13.79L17.30 13.79L17.30 13.79Q17.30 12.11 17.22 10.57ZM21.21 9.05L21.21 9.05L21.21 9.05Q20.94 8.78 20.94 8.39L20.94 8.39L20.94 8.39Q20.94 8.01 21.21 7.74L21.21 7.74L21.21 7.74Q21.49 7.47 21.86 7.47L21.86 7.47L21.86 7.47Q22.24 7.47 22.51 7.74L22.51 7.74L22.51 7.74Q22.78 8.01 22.78 8.39L22.78 8.39L22.78 8.39Q22.78 8.78 22.51 9.05L22.51 9.05L22.51 9.05Q22.24 9.32 21.86 9.32L21.86 9.32L21.86 9.32Q21.49 9.32 21.21 9.05ZM24.17 15.42L24.17 15.42L24.41 15.65L24.41 15.80L24.41 15.80Q23.21 17.27 22.22 17.27L22.22 17.27L22.22 17.27Q21.67 17.27 21.38 16.88L21.38 16.88L21.38 16.88Q21.29 16.75 21.23 16.59L21.23 16.59L21.23 16.59Q21.18 16.43 21.15 16.28L21.15 16.28L21.15 16.28Q21.12 16.13 21.11 15.81L21.11 15.81L21.11 15.81Q21.10 15.50 21.10 15.26L21.10 15.26L21.10 15.26Q21.10 15.01 21.11 14.48L21.11 14.48L21.11 14.48Q21.12 13.95 21.12 13.54L21.12 13.54L21.12 11.89L21.12 11.89Q21.05 11.21 20.63 11.21L20.63 11.21L20.63 11.21Q20.28 11.21 19.66 11.66L19.66 11.66L19.44 11.35L19.44 11.35Q19.85 11.01 20.16 10.80L20.16 10.80L20.16 10.80Q20.46 10.59 20.91 10.39L20.91 10.39L20.91 10.39Q21.37 10.19 21.75 10.19L21.75 10.19L21.75 10.19Q22.26 10.19 22.45 10.51L22.45 10.51L22.45 10.51Q22.54 10.66 22.58 10.88L22.58 10.88L22.58 10.88Q22.61 11.10 22.61 11.68L22.61 11.68L22.61 11.68Q22.61 11.96 22.59 12.53L22.59 12.53L22.59 12.53Q22.57 13.10 22.57 13.38L22.57 13.38L22.57 13.38Q22.57 13.60 22.57 13.91L22.57 13.91L22.57 13.91Q22.57 14.23 22.56 14.41L22.56 14.41L22.56 14.41Q22.56 14.59 22.56 14.83L22.56 14.83L22.56 14.83Q22.57 15.07 22.58 15.21L22.58 15.21L22.58 15.21Q22.59 15.35 22.62 15.52L22.62 15.52L22.62 15.52Q22.64 15.68 22.69 15.77L22.69 15.77L22.69 15.77Q22.73 15.85 22.80 15.93L22.80 15.93L22.80 15.93Q22.87 16.02 22.96 16.05L22.96 16.05L22.96 16.05Q23.05 16.08 23.17 16.08L23.17 16.08L23.17 16.08Q23.33 16.08 23.53 15.96L23.53 15.96L23.53 15.96Q23.73 15.84 23.85 15.73L23.85 15.73L23.85 15.73Q23.97 15.62 24.17 15.42ZM26.67 13.48L26.67 13.48L26.67 13.48Q27.36 13.26 28.31 12.98L28.31 12.98L28.31 12.98Q29.22 12.70 29.45 12.59L29.45 12.59L29.45 12.59Q29.68 12.48 29.68 12.27L29.68 12.27L29.68 12.27Q29.68 11.66 29.36 11.19L29.36 11.19L29.36 11.19Q29.04 10.72 28.41 10.72L28.41 10.72L28.41 10.72Q27.98 10.72 27.63 10.90L27.63 10.90L27.63 10.90Q27.29 11.09 27.08 11.37L27.08 11.37L27.08 11.37Q26.87 11.66 26.73 12.03L26.73 12.03L26.73 12.03Q26.59 12.40 26.54 12.74L26.54 12.74L26.54 12.74Q26.49 13.08 26.49 13.42L26.49 13.42L26.49 13.42Q26.49 13.49 26.59 13.49L26.59 13.49L26.59 13.49Q26.61 13.49 26.63 13.49L26.63 13.49L26.63 13.49Q26.66 13.48 26.67 13.48ZM30.69 15.62L30.91 15.67L31.06 15.94L31.06 15.94Q30.17 16.56 29.40 16.94L29.40 16.94L29.40 16.94Q28.62 17.32 27.85 17.32L27.85 17.32L27.85 17.32Q26.44 17.32 25.67 16.60L25.67 16.60L25.67 16.60Q24.81 15.81 24.81 14.23L24.81 14.23L24.81 14.23Q24.81 13.45 25.06 12.73L25.06 12.73L25.06 12.73Q25.31 12.00 25.77 11.43L25.77 11.43L25.77 11.43Q26.24 10.85 27.01 10.50L27.01 10.50L27.01 10.50Q27.77 10.16 28.73 10.16L28.73 10.16L28.73 10.16Q29.26 10.16 29.71 10.26L29.71 10.26L29.71 10.26Q30.17 10.37 30.56 10.60L30.56 10.60L30.56 10.60Q30.95 10.83 31.18 11.24L31.18 11.24L31.18 11.24Q31.40 11.65 31.40 12.20L31.40 12.20L31.40 12.20Q31.40 12.60 31.00 12.72L31.00 12.72L31.00 12.72Q30.96 12.72 26.49 14.11L26.49 14.11L26.49 14.11Q26.49 14.69 26.72 15.19L26.72 15.19L26.72 15.19Q26.95 15.70 27.43 16.03L27.43 16.03L27.43 16.03Q27.92 16.37 28.57 16.37L28.57 16.37L28.57 16.37Q29.46 16.37 30.69 15.62L30.69 15.62ZM32.84 9.17L32.83 8.86L34.33 8.35L34.54 8.45L34.54 8.45Q34.54 8.45 34.51 8.83L34.51 8.83L34.51 8.83Q34.48 9.22 34.44 9.79L34.44 9.79L34.44 9.79Q34.40 10.36 34.37 10.75L34.37 10.75L34.47 10.86L36.22 10.86L36.32 11.00L36.18 11.36L36.01 11.49L34.47 11.49L34.36 11.60L34.36 13.83L34.36 13.83Q34.36 14.12 34.36 14.27L34.36 14.27L34.36 14.27Q34.36 14.42 34.37 14.67L34.37 14.67L34.37 14.67Q34.38 14.92 34.40 15.06L34.40 15.06L34.40 15.06Q34.42 15.19 34.45 15.38L34.45 15.38L34.45 15.38Q34.49 15.57 34.55 15.67L34.55 15.67L34.55 15.67Q34.60 15.77 34.68 15.88L34.68 15.88L34.68 15.88Q34.76 15.98 34.87 16.02L34.87 16.02L34.87 16.02Q34.99 16.06 35.13 16.06L35.13 16.06L35.13 16.06Q35.66 16.06 36.26 15.51L36.26 15.51L36.40 15.51L36.57 15.72L36.57 15.72Q35.40 17.25 34.26 17.25L34.26 17.25L34.26 17.25Q33.98 17.25 33.76 17.17L33.76 17.17L33.76 17.17Q33.54 17.09 33.40 16.97L33.40 16.97L33.40 16.97Q33.26 16.86 33.16 16.65L33.16 16.65L33.16 16.65Q33.06 16.44 33.00 16.27L33.00 16.27L33.00 16.27Q32.95 16.09 32.92 15.80L32.92 15.80L32.92 15.80Q32.89 15.51 32.89 15.32L32.89 15.32L32.89 15.32Q32.89 15.13 32.89 14.81L32.89 14.81L32.89 11.61L32.76 11.49L31.22 11.49L31.14 11.38L31.28 10.97L31.43 10.88L32.78 10.88L32.87 10.75L32.87 10.75Q32.87 10.42 32.86 9.96L32.86 9.96L32.86 9.96Q32.85 9.49 32.84 9.17L32.84 9.17ZM43.77 11.79L43.77 11.79L43.77 11.94L43.77 11.94Q45.25 12.07 46.05 12.64L46.05 12.64L46.05 12.64Q46.85 13.21 46.85 14.19L46.85 14.19L46.85 14.19Q46.85 14.85 46.61 15.36L46.61 15.36L46.61 15.36Q46.38 15.87 45.99 16.20L45.99 16.20L45.99 16.20Q45.60 16.52 45.05 16.73L45.05 16.73L45.05 16.73Q44.50 16.95 43.93 17.03L43.93 17.03L43.93 17.03Q43.35 17.12 42.71 17.12L42.71 17.12L39.29 17.12L39.29 16.89L39.29 16.89Q39.48 16.77 39.59 16.67L39.59 16.67L39.59 16.67Q39.70 16.56 39.74 16.43L39.74 16.43L39.74 16.43Q39.79 16.29 39.79 16.20L39.79 16.20L39.79 16.20Q39.80 16.12 39.80 15.91L39.80 15.91L39.80 9.17L39.80 9.17Q39.80 9.07 39.81 8.90L39.81 8.90L39.81 8.90Q39.81 8.74 39.81 8.66L39.81 8.66L39.81 8.66Q39.81 8.59 39.79 8.47L39.79 8.47L39.79 8.47Q39.77 8.34 39.72 8.28L39.72 8.28L39.72 8.28Q39.68 8.22 39.58 8.12L39.58 8.12L39.58 8.12Q39.48 8.03 39.33 7.95L39.33 7.95L39.33 7.95Q39.18 7.88 38.96 7.80L38.96 7.80L38.96 7.80Q38.74 7.72 38.44 7.63L38.44 7.63L38.44 7.33L38.52 7.25L42.83 7.25L42.83 7.25Q46.52 7.25 46.52 9.39L46.52 9.39L46.52 9.39Q46.52 9.90 46.28 10.32L46.28 10.32L46.28 10.32Q46.03 10.74 45.62 11.02L45.62 11.02L45.62 11.02Q45.21 11.31 44.75 11.49L44.75 11.49L44.75 11.49Q44.29 11.68 43.77 11.79ZM41.55 12.23L41.55 15.45L41.55 15.45Q41.55 15.66 41.55 15.73L41.55 15.73L41.55 15.73Q41.55 15.80 41.56 15.96L41.56 15.96L41.56 15.96Q41.57 16.11 41.59 16.17L41.59 16.17L41.59 16.17Q41.61 16.22 41.65 16.31L41.65 16.31L41.65 16.31Q41.69 16.41 41.75 16.44L41.75 16.44L41.75 16.44Q41.82 16.47 41.91 16.50L41.91 16.50L41.91 16.50Q42 16.53 42.12 16.53L42.12 16.53L42.12 16.53Q43.31 16.53 44.07 15.89L44.07 15.89L44.07 15.89Q44.82 15.24 44.82 14.16L44.82 14.16L44.82 14.16Q44.82 13.45 44.18 12.83L44.18 12.83L44.18 12.83Q43.92 12.59 43.42 12.45L43.42 12.45L43.42 12.45Q42.92 12.31 42.53 12.28L42.53 12.28L42.53 12.28Q42.14 12.25 41.55 12.23L41.55 12.23ZM41.55 8.63L41.55 11.70L41.55 11.70Q43.05 11.70 43.83 11.13L43.83 11.13L43.83 11.13Q44.61 10.55 44.61 9.50L44.61 9.50L44.61 9.50Q44.61 7.83 42.30 7.83L42.30 7.83L42.30 7.83Q42.04 7.83 41.73 7.91L41.73 7.91L41.73 7.91Q41.60 7.94 41.58 8.08L41.58 8.08L41.58 8.08Q41.55 8.21 41.55 8.52L41.55 8.52L41.55 8.52Q41.55 8.56 41.55 8.58L41.55 8.58L41.55 8.58Q41.55 8.61 41.55 8.63L41.55 8.63ZM50.33 16.63L50.33 16.63L48.84 17.17L48.56 17.08L48.56 17.08Q48.66 13.81 48.66 12.97L48.66 12.97L48.66 12.97Q48.66 12.92 48.66 12.81L48.66 12.81L48.66 12.81Q48.66 12.61 48.66 12.51L48.66 12.51L48.66 12.51Q48.66 12.41 48.65 12.24L48.65 12.24L48.65 12.24Q48.64 12.07 48.63 11.98L48.63 11.98L48.63 11.98Q48.62 11.89 48.60 11.75L48.60 11.75L48.60 11.75Q48.58 11.62 48.54 11.55L48.54 11.55L48.54 11.55Q48.50 11.48 48.45 11.41L48.45 11.41L48.45 11.41Q48.40 11.34 48.32 11.31L48.32 11.31L48.32 11.31Q48.25 11.28 48.15 11.28L48.15 11.28L48.15 11.28Q47.96 11.28 47.69 11.41L47.69 11.41L47.69 11.41Q47.41 11.53 47.20 11.70L47.20 11.70L46.98 11.38L46.98 11.38Q47.30 11.12 47.50 10.98L47.50 10.98L47.50 10.98Q47.69 10.83 48.01 10.64L48.01 10.64L48.01 10.64Q48.33 10.44 48.62 10.34L48.62 10.34L48.62 10.34Q48.92 10.25 49.19 10.25L49.19 10.25L49.19 10.25Q49.72 10.25 49.92 10.56L49.92 10.56L49.92 10.56Q50.11 10.88 50.11 11.46L50.11 11.46L50.26 11.53L50.26 11.53Q50.80 10.98 51.32 10.63L51.32 10.63L51.32 10.63Q51.84 10.29 52.38 10.29L52.38 10.29L52.38 10.29Q52.94 10.29 53.21 10.65L53.21 10.65L53.21 10.65Q53.48 11.02 53.48 11.55L53.48 11.55L52.44 12.36L52.25 12.24L52.25 12.24Q52.19 11.92 51.98 11.70L51.98 11.70L51.98 11.70Q51.78 11.48 51.45 11.48L51.45 11.48L51.45 11.48Q51.06 11.48 50.79 11.68L50.79 11.68L50.79 11.68Q50.51 11.87 50.38 12.20L50.38 12.20L50.38 12.20Q50.24 12.52 50.19 12.84L50.19 12.84L50.19 12.84Q50.13 13.16 50.13 13.49L50.13 13.49L50.13 13.49Q50.13 14.42 50.33 16.63ZM55.74 13.48L55.74 13.48L55.74 13.48Q56.42 13.26 57.37 12.98L57.37 12.98L57.37 12.98Q58.29 12.70 58.52 12.59L58.52 12.59L58.52 12.59Q58.75 12.48 58.75 12.27L58.75 12.27L58.75 12.27Q58.75 11.66 58.43 11.19L58.43 11.19L58.43 11.19Q58.11 10.72 57.48 10.72L57.48 10.72L57.48 10.72Q57.05 10.72 56.70 10.90L56.70 10.90L56.70 10.90Q56.36 11.09 56.15 11.37L56.15 11.37L56.15 11.37Q55.94 11.66 55.80 12.03L55.80 12.03L55.80 12.03Q55.66 12.40 55.61 12.74L55.61 12.74L55.61 12.74Q55.56 13.08 55.56 13.42L55.56 13.42L55.56 13.42Q55.56 13.49 55.66 13.49L55.66 13.49L55.66 13.49Q55.67 13.49 55.70 13.49L55.70 13.49L55.70 13.49Q55.73 13.48 55.74 13.48ZM59.76 15.62L59.97 15.67L60.12 15.94L60.12 15.94Q59.24 16.56 58.46 16.94L58.46 16.94L58.46 16.94Q57.69 17.32 56.92 17.32L56.92 17.32L56.92 17.32Q55.51 17.32 54.74 16.60L54.74 16.60L54.74 16.60Q53.88 15.81 53.88 14.23L53.88 14.23L53.88 14.23Q53.88 13.45 54.13 12.73L54.13 12.73L54.13 12.73Q54.37 12.00 54.84 11.43L54.84 11.43L54.84 11.43Q55.31 10.85 56.08 10.50L56.08 10.50L56.08 10.50Q56.84 10.16 57.80 10.16L57.80 10.16L57.80 10.16Q58.32 10.16 58.78 10.26L58.78 10.26L58.78 10.26Q59.23 10.37 59.62 10.60L59.62 10.60L59.62 10.60Q60.01 10.83 60.24 11.24L60.24 11.24L60.24 11.24Q60.47 11.65 60.47 12.20L60.47 12.20L60.47 12.20Q60.47 12.60 60.07 12.72L60.07 12.72L60.07 12.72Q60.03 12.72 55.56 14.11L55.56 14.11L55.56 14.11Q55.56 14.69 55.78 15.19L55.78 15.19L55.78 15.19Q56.01 15.70 56.50 16.03L56.50 16.03L56.50 16.03Q56.98 16.37 57.63 16.37L57.63 16.37L57.63 16.37Q58.53 16.37 59.76 15.62L59.76 15.62ZM66.70 10.72L67.54 10.19L67.74 10.32L67.74 10.32Q67.51 12.65 67.51 14.14L67.51 14.14L67.51 14.14Q67.51 14.72 67.52 14.98L67.52 14.98L67.52 14.98Q67.53 15.24 67.57 15.55L67.57 15.55L67.57 15.55Q67.61 15.85 67.71 15.96L67.71 15.96L67.71 15.96Q67.81 16.06 67.98 16.06L67.98 16.06L67.98 16.06Q68.30 16.06 68.95 15.48L68.95 15.48L69.22 15.77L69.22 15.77Q68.97 16.06 68.75 16.29L68.75 16.29L68.75 16.29Q68.52 16.52 68.22 16.76L68.22 16.76L68.22 16.76Q67.92 17.00 67.58 17.13L67.58 17.13L67.58 17.13Q67.25 17.26 66.91 17.26L66.91 17.26L66.91 17.26Q66.17 17.26 66.04 16.33L66.04 16.33L65.86 16.26L65.86 16.26Q64.49 17.30 63.26 17.30L63.26 17.30L63.26 17.30Q62.72 17.30 62.32 17.02L62.32 17.02L62.32 17.02Q61.91 16.74 61.69 16.29L61.69 16.29L61.69 16.29Q61.48 15.84 61.37 15.36L61.37 15.36L61.37 15.36Q61.27 14.89 61.27 14.42L61.27 14.42L61.27 14.42Q61.27 12.29 62.13 11.20L62.13 11.20L62.13 11.20Q62.99 10.12 64.65 10.12L64.65 10.12L64.65 10.12Q65.71 10.12 66.70 10.72L66.70 10.72ZM66.07 12.46L66.07 12.46L66.07 12.46Q66.07 10.65 64.78 10.65L64.78 10.65L64.78 10.65Q64.39 10.65 64.08 10.80L64.08 10.80L64.08 10.80Q63.77 10.94 63.56 11.20L63.56 11.20L63.56 11.20Q63.36 11.46 63.22 11.78L63.22 11.78L63.22 11.78Q63.07 12.09 62.99 12.47L62.99 12.47L62.99 12.47Q62.92 12.85 62.88 13.19L62.88 13.19L62.88 13.19Q62.85 13.52 62.85 13.87L62.85 13.87L62.85 13.87Q62.85 14.27 62.92 14.65L62.92 14.65L62.92 14.65Q62.99 15.03 63.14 15.39L63.14 15.39L63.14 15.39Q63.29 15.76 63.60 15.99L63.60 15.99L63.60 15.99Q63.90 16.21 64.32 16.21L64.32 16.21L64.32 16.21Q65.15 16.21 65.96 15.45L65.96 15.45L65.96 15.45Q66.07 14.63 66.07 12.46ZM71.61 13.42L71.49 13.55L71.49 16.74L70.13 17.17L69.90 17.05L69.90 17.05Q69.95 15.79 69.95 12.01L69.95 12.01L69.95 9.53L69.95 9.53Q69.95 8.98 69.86 8.62L69.86 8.62L69.86 8.62Q69.79 8.31 69.56 8.22L69.56 8.22L69.56 8.22Q69.33 8.13 68.51 8.06L68.51 8.06L68.51 7.66L68.65 7.55L71.46 7.31L71.57 7.39L71.57 7.39Q71.57 7.40 71.51 9.67L71.51 9.67L71.51 9.67Q71.45 11.94 71.42 12.97L71.42 12.97L71.61 12.97L71.61 12.97Q71.97 12.69 73.22 11.54L73.22 11.54L73.22 11.54Q74.47 10.40 75.24 9.88L75.24 9.88L76.06 10.40L76.05 10.57L76.05 10.57Q73.95 11.69 72.60 12.72L72.60 12.72L72.60 12.72Q74.76 15.85 75.37 15.85L75.37 15.85L75.37 15.85Q75.63 15.85 75.84 15.73L75.84 15.73L75.84 15.73Q76.06 15.61 76.36 15.34L76.36 15.34L76.67 15.67L76.67 15.67Q76.36 16.02 76.12 16.28L76.12 16.28L76.12 16.28Q75.88 16.54 75.70 16.70L75.70 16.70L75.70 16.70Q75.52 16.85 75.41 16.95L75.41 16.95L75.41 16.95Q75.29 17.04 75.19 17.08L75.19 17.08L75.19 17.08Q75.08 17.12 75.04 17.13L75.04 17.13L75.04 17.13Q75.00 17.14 74.91 17.13L74.91 17.13L74.91 17.13Q74.83 17.12 74.81 17.12L74.81 17.12L74.81 17.12Q74.49 17.12 74.15 16.86L74.15 16.86L74.15 16.86Q73.80 16.60 73.47 16.15L73.47 16.15L73.47 16.15Q73.13 15.71 72.83 15.25L72.83 15.25L72.83 15.25Q72.54 14.79 72.19 14.26L72.19 14.26L72.19 14.26Q71.85 13.72 71.61 13.42L71.61 13.42Z"></path></g><!----><g data-v-423bf9ae="" id="bb99e8b3-65b2-4b8f-9bf5-58e14e2a3a25" transform="matrix(Infinity,0,0,Infinity,0,0)" stroke="none" fill="white"></g><!----></svg>