<?xml version="1.0" encoding="UTF-8" standalone="no"?>
<svg
   xmlns:dc="http://purl.org/dc/elements/1.1/"
   xmlns:cc="http://creativecommons.org/ns#"
   xmlns:rdf="http://www.w3.org/1999/02/22-rdf-syntax-ns#"
   xmlns:svg="http://www.w3.org/2000/svg"
   xmlns="http://www.w3.org/2000/svg"
   data-v-423bf9ae=""
   viewBox="0 0 366.06837 60"
   class="font"
   version="1.1"
   id="svg5"
   width="366.06836"
   height="60">
  <metadata
     id="metadata11">
    <rdf:RDF>
      <cc:Work
         rdf:about="">
        <dc:format>image/svg+xml</dc:format>
        <dc:type
           rdf:resource="http://purl.org/dc/dcmitype/StillImage" />
        <dc:title></dc:title>
      </cc:Work>
    </rdf:RDF>
  </metadata>
  <defs
     id="defs9" />
  <!---->
  <!---->
  <!---->
  <!---->
  <!---->
  <g
     id="layer2"
     style="display:inline">
    <g
       id="g1374">
      <g
         data-v-423bf9ae=""
         id="ee88b760-f846-4dd2-a9c9-4ebbc5875691"
         fill="#ffffff"
         transform="matrix(4.7095762,0,0,4.7095762,-3.0141349,-33.43799)"
         style="display:inline">
        <path
           id="path2"
           style="stroke-width:4.70958"
           d="M 27.267578,0 C 23.437123,0 19.810964,0.51858074 16.388672,1.5546875 12.96638,2.6221914 10.046489,4.2378918 7.6289062,6.4042969 2.542564,11.019682 0,17.583163 0,26.091797 c 0,2.166405 0.2205958,4.26973 0.66015625,6.310547 0.43956045,2.009419 1.16130605,3.971491 2.16601565,5.886718 0.9733124,1.915228 2.1981609,3.594793 3.6738281,5.039063 1.44427,1.412873 3.2650884,2.589335 5.462891,3.53125 2.197802,0.910518 4.645546,1.413621 7.345703,1.507813 1.098901,1.318681 2.041242,2.433231 2.826172,3.34375 0.784929,0.87912 1.789182,1.898851 3.013672,3.060546 1.255886,1.130299 2.434302,2.041684 3.533203,2.732422 1.098901,0.690738 2.354705,1.286708 3.767578,1.789063 C 33.893489,59.763926 35.352458,60 36.828125,60 c 4.270016,0 8.337366,-0.580492 12.199219,-1.742188 l -0.613282,-1.884765 c -2.919937,0.502355 -5.259336,0.753906 -7.017578,0.753906 -1.161695,0 -2.307201,-0.267029 -3.4375,-0.800781 C 36.828686,55.79242 35.778,55.024241 34.804688,54.019531 33.831375,53.046219 33.030287,52.119355 32.402344,51.240234 31.743003,50.392511 31.036735,49.37278 30.283203,48.179688 l 0.423828,-0.94336 C 43.17171,44.065213 49.404297,35.76221 49.404297,22.324219 c 0,-7.441131 -2.198146,-13.1570903 -6.59375,-17.1445315 C 40.863922,3.4214457 38.524523,2.1192081 35.792969,1.2714844 33.092812,0.42376066 30.25031,0 27.267578,0 Z M 178.39844,0.70703125 178.02148,1.0839844 v 1.4121094 c 0.94192,0.2825745 1.75849,0.5496038 2.44922,0.8007812 0.69074,0.2511774 1.27123,0.487251 1.74219,0.7070312 0.47096,0.2511774 0.86376,0.5182067 1.17773,0.8007813 0.31398,0.3139717 0.53457,0.5635701 0.66016,0.7519531 0.15699,0.1883831 0.26729,0.486368 0.33008,0.8945313 0.0628,0.3767661 0.0937,0.6767041 0.0937,0.8964843 v 1.1289063 c -0.0314,0.533752 -0.0469,0.9575126 -0.0469,1.2714844 V 41.492188 c 0,0.65934 -0.0155,1.114056 -0.0469,1.365234 0,0.282574 -0.0793,0.642471 -0.23633,1.082031 -0.12559,0.408163 -0.36166,0.785491 -0.70703,1.130859 -0.34537,0.313972 -0.81556,0.660344 -1.41211,1.03711 v 1.082031 h 16.10742 c 2.00942,0 3.92311,-0.141253 5.74414,-0.423828 1.78964,-0.251177 3.54855,-0.721372 5.27539,-1.412109 1.72685,-0.659341 3.20325,-1.491385 4.42774,-2.496094 1.22449,-1.036107 2.19778,-2.355775 2.91992,-3.957031 0.75353,-1.601256 1.12891,-3.437552 1.12891,-5.509766 0,-3.076923 -1.25581,-5.509189 -3.76758,-7.298828 -2.51178,-1.789639 -6.0915,-2.888712 -10.73828,-3.296875 v -0.707031 c 1.63265,-0.345369 3.17291,-0.815563 4.61718,-1.41211 1.44427,-0.565149 2.80842,-1.304325 4.09571,-2.214843 1.28728,-0.879121 2.32444,-1.978194 3.10937,-3.296876 0.75353,-1.318681 1.13086,-2.77765 1.13086,-4.378906 0,-6.7189951 -5.79335,-10.07812475 -17.3789,-10.07812475 z m 163.13281,0.28125 -13.23242,1.13085935 -0.66016,0.5175782 v 1.8847656 c 2.57457,0.2197802 4.22318,0.4713317 4.94531,0.7539062 0.72214,0.2825746 1.19233,0.9095001 1.41211,1.8828125 0.28258,1.1302983 0.42383,2.5583117 0.42383,4.2851559 v 11.679688 c 0,11.868132 -0.0774,19.780284 -0.23437,23.736328 l 1.08203,0.566406 6.40625,-2.02539 V 30.376953 l 0.56445,-0.613281 c 0.75353,0.941915 1.66492,2.261584 2.73242,3.957031 1.0989,1.66405 2.10316,3.217839 3.01368,4.662109 0.94191,1.444271 1.94616,2.856806 3.01367,4.238282 1.0361,1.412873 2.10422,2.527423 3.20312,3.34375 1.06751,0.816326 2.10271,1.224609 3.10742,1.224609 0.0628,0 0.21953,0.01548 0.47071,0.04687 0.28257,0.0314 0.48769,0.0314 0.61328,0 0.12559,-0.0314 0.36166,-0.108786 0.70703,-0.234375 0.31397,-0.125589 0.65839,-0.330707 1.03516,-0.613281 0.34536,-0.313972 0.80008,-0.704824 1.36523,-1.175781 0.56515,-0.502355 1.22498,-1.162189 1.97852,-1.978516 0.75353,-0.816327 1.61653,-1.774146 2.58984,-2.873047 l -1.45898,-1.554687 c -0.94192,0.847723 -1.75849,1.461124 -2.44922,1.83789 -0.65934,0.376766 -1.39657,0.564453 -2.21289,0.564453 -1.91523,0 -6.26509,-4.912918 -13.04688,-14.740234 4.23862,-3.233909 9.65464,-6.61047 16.24805,-10.126953 l 0.0469,-0.800781 -3.86133,-2.449219 c -2.41758,1.632653 -5.58902,4.239081 -9.51367,7.818359 -3.92464,3.610675 -6.45173,5.855254 -7.58203,6.734375 h -0.89453 c 0.0942,-3.233909 0.23545,-8.413857 0.42383,-15.541015 0.18838,-7.127159 0.2832,-10.7068845 0.2832,-10.7382816 z M 99.9375,1.7421875 c -1.161695,0 -2.183379,0.4237607 -3.0625,1.2714844 -0.847724,0.8477237 -1.271484,1.8694073 -1.271484,3.0625 0,1.2244898 0.42376,2.2596981 1.271484,3.1074219 0.879121,0.8477232 1.900805,1.2714842 3.0625,1.2714842 1.19309,0 2.21282,-0.423761 3.06055,-1.2714842 0.84772,-0.8477238 1.27148,-1.8829321 1.27148,-3.1074219 0,-1.1930927 -0.42376,-2.2147763 -1.27148,-3.0625 C 102.15032,2.1659482 101.13059,1.7421875 99.9375,1.7421875 Z M 24.820312,3.0136719 c 2.103611,0 4.017297,0.3773272 5.744141,1.1308593 1.726845,0.7849294 3.187767,1.8375687 4.380859,3.15625 1.193093,1.3500786 2.181868,2.9348228 2.966797,4.7558598 0.816327,1.789639 1.396819,3.689799 1.742188,5.699218 0.376766,2.00942 0.566406,4.128223 0.566406,6.357422 0,14.160126 -5.102559,21.240235 -15.306641,21.240235 -1.88383,0 -3.611781,-0.330894 -5.18164,-0.990235 -1.601256,-0.65934 -2.949927,-1.553295 -4.048828,-2.683593 C 14.584693,40.549389 13.611396,39.262629 12.763672,37.818359 11.915948,36.405487 11.256114,34.867175 10.785156,33.203125 10.314199,31.570472 9.9678271,29.983774 9.7480469,28.445312 9.4968695,26.875454 9.3710938,25.337143 9.3710938,23.830078 c 0,-1.88383 0.1586845,-3.751082 0.4726562,-5.603516 0.313972,-1.852433 0.846077,-3.721638 1.599609,-5.605468 0.78493,-1.852434 1.742749,-3.4836118 2.873047,-4.8964846 1.161696,-1.3814757 2.638096,-2.5134573 4.427735,-3.3925782 1.821036,-0.8791208 3.846972,-1.3183593 6.076171,-1.3183593 z M 196.20117,3.4375 c 7.25275,0 10.87891,2.6219062 10.87891,7.865234 0,3.296704 -1.22485,5.856699 -3.67383,7.677735 -2.44898,1.789639 -6.02871,2.683594 -10.73828,2.683593 V 7.2050781 6.9707031 6.6875 c 0,-0.9733124 0.0484,-1.6641024 0.14258,-2.0722656 0.0628,-0.4395605 0.29691,-0.7065898 0.70507,-0.8007813 C 194.48894,3.5632757 195.38485,3.4375 196.20117,3.4375 Z m -37.53515,2.4492188 -7.06446,2.4023437 0.0469,1.4589844 c 0.0314,1.0047091 0.0624,2.2450361 0.0937,3.7207031 0.0314,1.44427 0.0469,2.684596 0.0469,3.720703 l -0.42383,0.613281 h -6.35742 l -0.70703,0.423828 -0.44922,1.31836 c -0.008,-0.0151 -0.0134,-0.03183 -0.0215,-0.04687 -0.72214,-1.287284 -1.69543,-2.291537 -2.91992,-3.013672 -1.22449,-0.722135 -2.55769,-1.256194 -4.00196,-1.601563 -1.41287,-0.313971 -2.95313,-0.470703 -4.61718,-0.470703 -3.01413,0 -5.71343,0.532106 -8.09961,1.59961 -2.41759,1.098901 -4.36418,2.559823 -5.83985,4.380859 -1.44427,1.789639 -2.55882,3.831053 -3.34375,6.123047 -0.78493,2.260597 -1.17773,4.615474 -1.17773,7.064453 0,4.960754 1.35062,8.67978 4.05078,11.160156 2.41758,2.260597 5.84058,3.392578 10.26758,3.392578 2.41758,0 4.84985,-0.597922 7.29883,-1.791015 2.41758,-1.193093 5.02401,-2.76236 7.81835,-4.708985 L 142.55859,40.361328 141.52344,40.125 c -3.86185,2.354788 -7.19003,3.533203 -9.98438,3.533203 -2.04081,0 -3.83068,-0.534058 -5.36914,-1.601562 -1.50706,-1.036107 -2.62161,-2.355776 -3.34375,-3.957032 -0.72213,-1.569858 -1.08398,-3.264901 -1.08398,-5.085937 14.03453,-4.364207 21.11464,-6.544922 21.24023,-6.544922 1.25589,-0.376766 1.88477,-1.193332 1.88477,-2.449219 0,-1.227088 -0.18442,-2.338616 -0.53321,-3.34375 h 6.9375 l 0.61329,0.564453 v 15.070313 2.402344 c 0,0.596546 0.0464,1.349247 0.14062,2.259765 0.0942,0.910518 0.21997,1.649695 0.37695,2.214844 0.18839,0.533752 0.43994,1.129722 0.75391,1.789062 0.31397,0.659341 0.68935,1.162444 1.12891,1.507813 0.43956,0.376766 1.00457,0.690229 1.69531,0.941406 0.69074,0.251178 1.47635,0.376953 2.35547,0.376953 3.57928,0 7.20543,-2.403263 10.8789,-7.207031 l -0.80078,-0.988281 h -0.6582 c -1.88383,1.726844 -3.65822,2.589844 -5.32227,2.589844 -0.43956,0 -0.84784,-0.06191 -1.22461,-0.1875 -0.34536,-0.125589 -0.64335,-0.346185 -0.89453,-0.660157 -0.25117,-0.345369 -0.45629,-0.674309 -0.61328,-0.988281 -0.18838,-0.313972 -0.34511,-0.768688 -0.4707,-1.365234 -0.0942,-0.596547 -0.17158,-1.099649 -0.23438,-1.507813 -0.0628,-0.43956 -0.11118,-1.051008 -0.14257,-1.835937 -0.0314,-0.78493 -0.0469,-1.413808 -0.0469,-1.884766 V 31.695312 21.193359 l 0.51758,-0.517578 h 7.2539 l 0.80079,-0.613281 0.6582,-1.695312 -0.4707,-0.660157 h -8.24219 l -0.4707,-0.517578 c 0.0942,-1.22449 0.20449,-2.731845 0.33007,-4.521484 0.12559,-1.789639 0.23589,-3.2950417 0.33008,-4.5195315 l 0.14063,-1.7910156 z m -73.798832,8.1953122 -6.783204,2.259766 c 0.251178,4.835165 0.376954,9.89129 0.376954,15.166015 0,3.642073 -0.01548,6.32589 -0.04688,8.052735 -1.350078,1.036107 -2.590404,1.821717 -3.720703,2.355469 -1.161695,0.533752 -2.417499,0.800781 -3.767578,0.800781 -1.098901,0 -2.041242,-0.174162 -2.826172,-0.519531 -0.753532,-0.313972 -1.36498,-0.737733 -1.835937,-1.271485 -0.439561,-0.533752 -0.783979,-1.270975 -1.035156,-2.21289 -0.282575,-0.910518 -0.456737,-1.868338 -0.519532,-2.873047 -0.09419,-1.00471 -0.140625,-2.245036 -0.140625,-3.720703 0,-1.44427 0.07934,-3.51664 0.236329,-6.216797 0.125588,-2.731554 0.1875,-4.488508 0.1875,-5.273438 0,-0.910518 -0.06191,-1.711606 -0.1875,-2.402344 C 64.679099,17.535825 64.443025,16.87599 64.097656,16.248047 63.752287,15.651501 63.233707,15.181306 62.542969,14.835938 61.883628,14.490569 61.036107,14.316406 60,14.316406 c -0.753532,0 -1.570098,0.156732 -2.449219,0.470703 -0.879121,0.282575 -1.821462,0.739244 -2.826172,1.367188 -1.036106,0.627943 -1.835241,1.144571 -2.40039,1.552734 -0.565149,0.376766 -1.397193,0.974689 -2.496094,1.791016 l 0.941406,1.648437 c 1.883831,-1.193092 3.234455,-1.791015 4.050781,-1.791015 0.313972,0 0.611957,0.06386 0.894532,0.189453 0.251177,0.09419 0.46982,0.266401 0.658203,0.517578 0.156986,0.251177 0.298239,0.502729 0.423828,0.753906 0.156986,0.21978 0.267284,0.564199 0.330078,1.035156 0.09419,0.470958 0.158056,0.879241 0.189453,1.22461 0.0314,0.345369 0.06235,0.817516 0.09375,1.414062 v 1.50586 1.648437 c -0.0314,0.722135 -0.04687,1.271672 -0.04687,1.648438 v 2.072265 c -0.0314,0.973313 -0.04687,1.712489 -0.04687,2.214844 v 1.976563 1.83789 1.601563 c 0.0314,0.65934 0.06235,1.16049 0.09375,1.505859 0.0314,0.313972 0.06235,0.722255 0.09375,1.224609 0.0628,0.502355 0.142137,0.89516 0.236328,1.177735 0.09419,0.282574 0.202537,0.596037 0.328125,0.941406 0.156986,0.345369 0.331149,0.627876 0.519532,0.847656 0.188383,0.251178 0.391548,0.487251 0.611328,0.707032 1.569858,1.44427 3.70414,2.166015 6.404297,2.166015 0.596546,0 1.25638,-0.09482 1.978515,-0.283203 0.722135,-0.156986 1.366492,-0.329195 1.931641,-0.517578 0.596546,-0.188383 1.349247,-0.501846 2.259766,-0.941406 0.910518,-0.408164 1.601308,-0.737104 2.072265,-0.988281 0.470958,-0.251178 1.210134,-0.628505 2.214844,-1.13086 1.004709,-0.533752 1.662591,-0.895601 1.976562,-1.083984 l 0.613282,0.423828 c 0.470957,3.014129 2.055702,4.521484 4.755859,4.521484 0.816327,0 1.663848,-0.203165 2.542969,-0.611328 0.879121,-0.408163 1.852418,-1.037042 2.919922,-1.884766 1.036106,-0.87912 1.837194,-1.585388 2.402343,-2.11914 0.56515,-0.533752 1.381715,-1.319362 2.449219,-2.355469 l -0.517578,-1.318359 h -0.707031 c -2.072214,1.22449 -3.564092,1.83789 -4.47461,1.83789 -0.565149,0 -1.050821,-0.174162 -1.458984,-0.519531 -0.408163,-0.345369 -0.69067,-0.753652 -0.847656,-1.224609 -0.188383,-0.470958 -0.329637,-1.066928 -0.423828,-1.789063 -0.06279,-0.722135 -0.0957,-1.333582 -0.0957,-1.835937 0.0314,-0.502355 0.06431,-1.100278 0.0957,-1.791016 0.0314,-0.659341 0.04687,-1.06567 0.04687,-1.222656 0,-7.032967 0.110298,-13.031434 0.330078,-17.992188 z m 224.593752,0.140625 c -5.21193,0 -9.16899,1.695043 -11.86914,5.085938 -2.70016,3.422292 -4.05078,8.478417 -4.05078,15.166015 0,1.475668 0.15673,2.950114 0.4707,4.425782 0.34537,1.507064 0.84847,2.967986 1.50781,4.380859 0.69074,1.412873 1.67951,2.558379 2.9668,3.4375 1.25589,0.879121 2.73229,1.318359 4.42773,1.318359 3.86185,0 7.94273,-1.631178 12.24414,-4.896484 l 0.84766,0.328125 c 0.40816,2.919937 1.77426,4.380859 4.09766,4.380859 1.0675,0 2.12014,-0.205118 3.15625,-0.613281 1.0675,-0.408163 2.07175,-0.988655 3.01367,-1.742187 0.94191,-0.753533 1.77396,-1.490756 2.49609,-2.212891 0.69074,-0.722135 1.42796,-1.538701 2.21289,-2.449219 l -1.27148,-1.365234 c -2.04082,1.821036 -3.56365,2.730469 -4.56836,2.730469 -0.53375,0 -0.95751,-0.156732 -1.27149,-0.470704 -0.31397,-0.345368 -0.53261,-0.987772 -0.6582,-1.929687 -0.12559,-0.973312 -0.20493,-1.86922 -0.23633,-2.685547 -0.0314,-0.816326 -0.0469,-2.134042 -0.0469,-3.955078 0,-4.678179 0.35989,-10.676646 1.08203,-17.992188 l -0.94141,-0.611328 -3.95508,2.496094 c -3.10832,-1.88383 -6.32619,-2.826172 -9.65429,-2.826172 z m -32.26172,0.189453 c -1.09272,0 -2.14215,0.07259 -3.15234,0.212891 l -1.36719,2.982422 c 0.92432,-0.366498 1.92451,-0.558594 3.01172,-0.558594 1.97802,0 3.4699,0.737224 4.47461,2.212891 1.00471,1.475667 1.50781,3.17071 1.50781,5.085937 0,0.659341 -0.36185,1.162444 -1.08399,1.507813 -0.72213,0.345369 -2.52747,0.956816 -5.41601,1.835937 -2.98273,0.879121 -5.54078,1.664731 -7.67578,2.355469 -0.0314,0 -0.0953,0.01548 -0.18946,0.04687 h -0.1875 c -0.06,0 -0.10966,-0.0076 -0.1582,-0.01563 l -5.83203,12.726563 c 0.48163,0.710279 1.02883,1.359192 1.65625,1.935546 2.41758,2.260597 5.84058,3.392578 10.26758,3.392578 2.41758,0 4.83632,-0.597922 7.2539,-1.791015 2.44898,-1.193093 5.05346,-2.76236 7.81641,-4.708985 L 287.41992,40.361328 286.42969,40.125 c -3.86185,2.354788 -7.20551,3.533203 -10.03125,3.533203 -2.04082,0 -3.8152,-0.534058 -5.32227,-1.601562 -1.53846,-1.036107 -2.66849,-2.355776 -3.39062,-3.957032 -0.69074,-1.569858 -1.03516,-3.264901 -1.03516,-5.085937 14.03454,-4.364207 21.11465,-6.544922 21.24023,-6.544922 1.25589,-0.376766 1.88282,-1.193332 1.88282,-2.449219 0,-1.726844 -0.3599,-3.2342 -1.08203,-4.521484 -0.72214,-1.287284 -1.69544,-2.291537 -2.91993,-3.013672 -1.22449,-0.722135 -2.54415,-1.256194 -3.95703,-1.601563 -1.44427,-0.313971 -2.98258,-0.470703 -4.61523,-0.470703 z M 99.419922,14.552734 c -1.193093,0 -2.512761,0.313463 -3.957031,0.941407 -1.412873,0.627943 -2.589335,1.2723 -3.53125,1.93164 -0.973313,0.659341 -2.105294,1.52234 -3.392579,2.589844 l 1.03711,1.460937 c 1.946625,-1.412872 3.469458,-2.121093 4.568359,-2.121093 1.318682,0 2.086861,1.068117 2.306641,3.203125 v 7.771484 c 0,1.287284 -0.01548,2.761731 -0.04687,4.425781 -0.0314,1.664051 -0.04687,2.888899 -0.04687,3.673829 0,0.753532 0.01548,1.616531 0.04687,2.589843 0.0314,1.00471 0.09526,1.743886 0.189453,2.214844 0.09419,0.470958 0.219967,0.95663 0.376953,1.458984 0.188383,0.502355 0.422504,0.959025 0.705078,1.367188 0.910518,1.22449 2.230187,1.835937 3.957034,1.835937 3.10832,0 6.54679,-2.308443 10.31446,-6.923828 v -0.705078 l -1.13086,-1.083984 c -0.62795,0.627943 -1.13105,1.115568 -1.50782,1.460937 -0.37676,0.345369 -0.87791,0.705265 -1.50586,1.082031 -0.62794,0.376767 -1.19295,0.566407 -1.69531,0.566407 -0.37676,0 -0.70766,-0.04839 -0.99023,-0.142578 -0.28258,-0.09419 -0.53413,-0.281879 -0.75391,-0.564453 -0.21978,-0.251178 -0.392,-0.502729 -0.51758,-0.753907 -0.15698,-0.282574 -0.26728,-0.675379 -0.33008,-1.177734 -0.0942,-0.533752 -0.1561,-1.019424 -0.1875,-1.458985 -0.0314,-0.43956 -0.0623,-1.037483 -0.0937,-1.791015 v -1.976563 c 0.0314,-0.565149 0.0469,-1.350759 0.0469,-2.355468 v -2.496094 c 0,-0.879121 0.031,-2.214267 0.0937,-4.003906 0.0628,-1.789639 0.0937,-3.122833 0.0937,-4.001954 0,-1.821036 -0.0464,-3.07684 -0.14063,-3.767578 -0.12558,-0.690737 -0.32875,-1.27123 -0.61133,-1.742187 -0.59654,-1.00471 -1.69562,-1.507813 -3.296873,-1.507813 z m 129.230468,0.283204 c -0.84772,0 -1.74363,0.141253 -2.68555,0.423828 -0.91051,0.313971 -1.86833,0.784166 -2.87304,1.412109 -1.00471,0.596546 -1.80385,1.130605 -2.40039,1.601563 -0.62795,0.43956 -1.44451,1.066485 -2.44922,1.882812 l 1.03515,1.507812 c 0.65934,-0.533751 1.42948,-0.988468 2.3086,-1.365234 0.84772,-0.408163 1.56947,-0.613281 2.16601,-0.613281 0.31397,0 0.581,0.04839 0.80078,0.142578 0.25118,0.09419 0.45435,0.250923 0.61133,0.470703 0.15699,0.21978 0.29824,0.438423 0.42383,0.658203 0.12559,0.21978 0.22041,0.535196 0.2832,0.94336 0.0628,0.43956 0.10923,0.799456 0.14063,1.082031 0.0314,0.282574 0.0643,0.690857 0.0957,1.224609 0.0314,0.533752 0.0469,0.957513 0.0469,1.271485 v 1.414062 0.751953 c 0,2.637363 -0.15673,9.090546 -0.47071,19.357422 l 1.31836,0.423828 5.87891,-2.130859 0.99023,-2.160156 c -0.51941,-5.979921 -0.79492,-10.385363 -0.79492,-13.041016 0,-1.036107 0.0948,-2.055837 0.28321,-3.060547 0.15698,-1.004709 0.45497,-2.008962 0.89453,-3.013672 0.40816,-1.036107 1.05252,-1.852672 1.93164,-2.449219 0.84772,-0.627943 1.88293,-0.941406 3.10742,-0.941406 1.03611,0 1.86815,0.344419 2.49609,1.035156 0.49492,0.518491 0.85638,1.124916 1.08594,1.820313 l 3.57227,-7.792969 c -0.74494,-0.445436 -1.66968,-0.667968 -2.77344,-0.667968 -1.69545,0 -3.35954,0.534058 -4.99219,1.601562 -1.63265,1.098901 -3.29674,2.511437 -4.99219,4.238281 l -0.70703,-0.330078 c 0,-1.821036 -0.29798,-3.233572 -0.89453,-4.238281 -0.62794,-0.973313 -1.77345,-1.458984 -3.4375,-1.458984 z m 81.42188,1.882812 c 4.05023,0 6.07617,2.842502 6.07617,8.525391 0,6.813187 -0.17416,11.505509 -0.51953,14.080078 -2.54317,2.386185 -5.11669,3.580078 -7.72266,3.580078 -1.31868,0 -2.44871,-0.346372 -3.39063,-1.037109 -0.97331,-0.722136 -1.69701,-1.662524 -2.16796,-2.824219 -0.47096,-1.130299 -0.81538,-2.293236 -1.03516,-3.486328 -0.21978,-1.193093 -0.33008,-2.415988 -0.33008,-3.671875 0,-1.098901 0.0464,-2.167019 0.14063,-3.203125 0.12559,-1.067504 0.29975,-2.197533 0.51953,-3.390625 0.25118,-1.193093 0.61107,-2.276688 1.08203,-3.25 0.43956,-1.00471 0.97362,-1.916096 1.60156,-2.732422 0.65934,-0.816327 1.47591,-1.443252 2.44922,-1.882813 0.97331,-0.470957 2.07239,-0.707031 3.29688,-0.707031 z m -179.28711,0.330078 c 1.97802,0 3.4699,0.737224 4.47461,2.212891 1.00471,1.475667 1.50585,3.17071 1.50585,5.085937 10e-6,0.659341 -0.35989,1.162444 -1.08203,1.507813 -0.72213,0.345369 -2.51199,0.956816 -5.36914,1.835937 -2.98273,0.879121 -5.5582,1.664731 -7.72461,2.355469 -0.0314,0 -0.0933,0.01548 -0.1875,0.04687 h -0.18945 c -0.31397,0 -0.4707,-0.110298 -0.4707,-0.330078 0,-1.067504 0.0793,-2.133668 0.23633,-3.201172 0.15698,-1.067504 0.45497,-2.182055 0.89453,-3.34375 0.43956,-1.161695 0.98909,-2.198857 1.64843,-3.109375 0.65935,-0.879121 1.52234,-1.616344 2.58985,-2.212891 1.0989,-0.565149 2.32375,-0.847656 3.67383,-0.847656 z m 61.88281,7.111328 c 1.85243,0.06279 3.39074,0.142137 4.61523,0.236328 1.22449,0.09419 2.6235,0.359268 4.19336,0.798828 1.56986,0.439561 2.7618,1.037484 3.57813,1.791016 2.00942,1.946625 3.01367,4.034473 3.01367,6.263672 0,3.390895 -1.17646,6.105668 -3.53125,8.146484 -2.38619,2.00942 -5.44733,3.015625 -9.18359,3.015625 -0.37677,0 -0.70766,-0.04839 -0.99024,-0.142578 -0.28257,-0.09419 -0.53217,-0.187058 -0.75195,-0.28125 -0.18838,-0.09419 -0.34512,-0.299309 -0.47071,-0.613281 -0.12558,-0.282575 -0.2204,-0.501217 -0.2832,-0.658203 -0.0628,-0.188383 -0.10923,-0.519277 -0.14062,-0.990235 -0.0314,-0.502354 -0.0488,-0.862251 -0.0488,-1.082031 v -1.320312 z"
           transform="matrix(0.21233333,0,0,0.21233333,0.6400013,7.0999998)" />
      </g>
      <rect
         style="fill:#ffffff;stroke-width:0.850065;stroke-miterlimit:4;stroke-dasharray:none"
         id="rect1367"
         width="6.4124107"
         height="52.426098"
         x="264.23392"
         y="1.2489942"
         transform="matrix(1,0,-0.42863153,0.90347939,0,0)" />
    </g>
  </g>
</svg>
